<?xml version="1.0" encoding="UTF-8"?>
<svg id="Capa_1" data-name="Capa 1" xmlns="http://www.w3.org/2000/svg" version="1.1" viewBox="0 0 595.3 841.9">
  <defs>
    <style>
      .cls-1 {
        fill: #383b4e;
      }

      .cls-1, .cls-2, .cls-3, .cls-4, .cls-5, .cls-6, .cls-7, .cls-8, .cls-9 {
        stroke-width: 0px;
      }

      .cls-2 {
        fill: #f2f2e0;
      }

      .cls-3 {
        fill: #eeae85;
      }

      .cls-4 {
        fill: #b41f1c;
      }

      .cls-5 {
        fill: #9f1d17;
      }

      .cls-6 {
        fill: #f9bb8d;
      }

      .cls-7 {
        fill: #ffde00;
      }

      .cls-8 {
        fill: #2c2e3d;
      }

      .cls-9 {
        fill: #543522;
      }
    </style>
  </defs>
  <path class="cls-8" d="M524.6,644.4c-7.7-38.8-14.2-64.9-17.9-72.1-21.5-41.3-60.6-45.3-101.8-56.9-13-3.6-92.5,110.9-92.5,110.9,0,0-79.4-114.5-92.5-110.9-41.3,11.6-80.9,15.2-102.3,56.5-3.7,7.2-10,33.4-17.2,72.5h424.3Z"/>
  <polygon class="cls-8" points="404.9 515.4 389.8 514 232.9 514 222.4 515.7 286.1 637.4 353.7 637.4 404.9 515.4"/>
  <path class="cls-5" d="M336.4,546.5c-.9-6.6-17.3-18.9-25.6-19.1-8.3-.2-25.3,10-24.6,18.1.7,8,12.4,19.1,12.4,19.1l-2.1,28.1,15.9,24.4,13.8-24.4-3.2-28.1s14.3-11.5,13.3-18.1Z"/>
  <path class="cls-4" d="M311.8,616.3v-88.7c-.4,0-.7-.1-1.1-.1-8.3-.2-25.3,10-24.6,18.1.7,8,12.4,19.1,12.4,19.1l-2.1,28.1,15.4,23.6Z"/>
  <path class="cls-3" d="M351.8,456.3s-19.5,22.3-39.7,22.3-45.8-22.3-45.8-22.3c0,0,1,26.6,1,36.5,25.6,15.2,43.4,34.7,43.4,34.7,0,0,20.5-24.4,44.4-33.2-2.3-12.4-3.3-37.9-3.3-37.9Z"/>
  <path class="cls-3" d="M408.7,388.9c-3.6,7-12.4,17.9-21.6,14.9-4.5-1.4-7.5-21.8-9.7-27.8-2.3-5.9-3.1-17.6-2.8-23.8.2-6.2,2.6-19.4,16.6-18.8,16.5.7,22.9,14.2,22.9,20.4,0,6.2-1.7,28.1-5.3,35.1Z"/>
  <path class="cls-6" d="M193.6,387.7c3.5,7.1,14.4,21.8,26,15.7,4.4-2.3,5.2-21.5,7.9-27.3,2.7-5.8,4.1-17.5,4.1-23.7,0-6.2-5.3-18.4-20.2-18.4s-21.6,12.2-21.8,18.4c-.3,6.2.5,28.2,4,35.3Z"/>
  <path class="cls-1" d="M474.9,644.4c-4.1-49.9-7.7-84.1-10.4-92.2-10.6-32.9-34.7-29.5-59.6-36.8-9.5-2.8-91.4,110.9-91.4,110.9,0,0-84.3-114.5-93.6-110.9-29.3,11.6-42.8-1.6-58,39.7-2.9,7.9-6.4,40.9-10.2,89.3h323.2Z"/>
  <path class="cls-6" d="M384.8,408.1c-16.1,36.1-52,77.6-74.8,77.6s-76.2-48.2-88.6-77.6c-12.3-29.4-18.6-88.3-18.8-119.7-.2-31.3,24.2-93.1,92.3-93.1s98.4,61.8,99.6,93.1c1.2,31.3,6.4,83.6-9.7,119.7Z"/>
  <path class="cls-3" d="M394.5,288.4c-1.1-29.1-16.8-84.4-83.3-92.1v289.4c22.8-1.3,57.8-42,73.6-77.5,16.2-36.1,10.9-88.4,9.7-119.7Z"/>
  <polygon class="cls-2" points="152.8 398.6 144.8 401.2 141 343.3 141.4 404.5 132.6 404.5 132.6 372.9 128.7 401.5 117.6 398.6 132.6 293.8 144.8 293.8 152.8 398.6"/>
  <rect class="cls-2" x="135.2" y="186" width="6.7" height="111.2"/>
  <path class="cls-2" d="M389.8,514c-20.3-1.6-28.3-23.6-34.6-24.7-6.3-1.1-43.8,28.6-44.4,38.1,7.6,2.5,22.1,14.7,23.9,19.5,1.9,4.8-11.8,17.9-11.8,17.9l3.3,27.9s32.5-56.8,63.6-78.6Z"/>
  <path class="cls-2" d="M232.9,514c20.3-1.6,27.1-23.6,33.5-24.7,6.3-1.1,43.8,28.6,44.4,38.1-7.6,2.5-20.9,14.7-22.8,19.5-1.9,4.8,11.8,17.9,11.8,17.9l-3.3,27.9s-32.5-56.8-63.6-78.6Z"/>
  <path class="cls-9" d="M395.1,363.9c.9-10,1.2-20.1,1.1-29.9,5.3,0,11.6,6.4,11.6,6.4,0,0-6.1-43.2-6.4-52.1-1.2-31.3-26.2-93.1-106.5-93.1s-101,60.6-100.8,91.9c0,9.9-1.2,39.6.1,53.2,4.9-4.4,11.4-6.2,11.4-6.2,0,0,2.4,19.6,4.2,29.7,0,0,2.4-26.2,9-42.8,6.6-16.7,25.6-19.1,22.2-36.7,57.2,35.5,61-7.1,115.3,18.9,40,19.1,38.8,60.7,38.8,60.7Z"/>
  <path class="cls-1" d="M389.6,190.3h-186.1s-11,86.9-13.9,98.5c0,0,83.5-15.1,107,37.2,19.1-57,107-37.2,107-37.2-2.9-11.6-13.9-98.5-13.9-98.5Z"/>
  <path class="cls-8" d="M461.3,186c0,4.9-4,8.9-8.9,8.9H140.5c-4.9,0-8.9-4-8.9-8.9h0c0-4.9,4-8.9,8.9-8.9h312c4.9,0,8.9,4,8.9,8.9h0Z"/>
  <path class="cls-7" d="M148.9,293.8c0,5.2-4.2,9.4-9.4,9.4s-9.4-4.2-9.4-9.4,4.2-9.4,9.4-9.4,9.4,4.2,9.4,9.4Z"/>
  <rect class="cls-8" x="380.3" y="627.6" width="58.7" height="9.8"/>
</svg>